<svg xmlns="http://www.w3.org/2000/svg" viewBox="0 0 361.29 420.07"><defs><style>.cls-1{fill:#002c70;}.cls-2{fill:#ffcc59;}.cls-3{fill:#fee080;}.cls-4{fill:#00bbde;}.cls-5{fill:#ffc500;}.cls-6{fill:#ffe400;}.cls-7,.cls-8{fill:none;}.cls-8{stroke:#ff7a4d;stroke-linecap:round;stroke-linejoin:round;stroke-width:5px;}</style></defs><g id="Layer_2" data-name="Layer 2"><g id="Layer_11" data-name="Layer 11"><path class="cls-1" d="M145.68,241.42h10.4a39.25,39.25,0,0,1,78.5,0H245a49.65,49.65,0,1,0-99.3,0Z"/><polygon class="cls-2" points="271.09 414.88 224.85 414.88 224.85 246.36 300.6 246.36 271.09 414.88"/><polygon class="cls-3" points="87.29 414.88 233.94 414.88 233.94 246.36 57.79 246.36 87.29 414.88"/><path class="cls-4" d="M114.48,241.42h10.4a39.26,39.26,0,0,1,78.51,0h10.4a49.66,49.66,0,0,0-99.31,0Z"/><polygon class="cls-5" points="291.09 414.88 224.85 414.88 224.85 246.36 320.6 246.36 291.09 414.88"/><polygon class="cls-6" points="87.29 414.88 233.94 414.88 233.94 246.36 57.79 246.36 87.29 414.88"/><circle class="cls-4" cx="339.88" cy="213.68" r="4.77"/><path class="cls-4" d="M164.06,116.39a4.13,4.13,0,1,1,4.13,4.13A4.13,4.13,0,0,1,164.06,116.39Z"/><circle class="cls-4" cx="91.56" cy="174.57" r="5.72" transform="translate(-89.76 251.9) rotate(-85.42)"/><circle class="cls-4" cx="13.67" cy="240.39" r="11.76" transform="translate(-225.8 215.37) rotate(-80.78)"/><circle class="cls-4" cx="338.92" cy="299.21" r="3.18"/><path class="cls-4" d="M321.75,214a5.72,5.72,0,1,1-5.72-5.73A5.72,5.72,0,0,1,321.75,214Z"/><circle class="cls-4" cx="98.56" cy="83.64" r="3.82"/><path class="cls-4" d="M264.52,116.39a3.5,3.5,0,1,1-3.49-3.5A3.5,3.5,0,0,1,264.52,116.39Z"/><path class="cls-4" d="M90.29,204.49a3.5,3.5,0,1,0,3.5-3.5A3.5,3.5,0,0,0,90.29,204.49Z"/><line class="cls-7" x1="42.82" y1="13" x2="25.82"/><line class="cls-8" x1="346.18" y1="417.57" x2="358.79" y2="417.57"/><line class="cls-8" x1="316.46" y1="417.57" x2="330.76" y2="417.57"/><line class="cls-8" x1="64.96" y1="417.57" x2="302.17" y2="417.57"/><line class="cls-8" x1="2.5" y1="417.57" x2="43.25" y2="417.57"/></g></g></svg>